<svg version="1.1" id="Layer_1" xmlns="http://www.w3.org/2000/svg" xmlns:xlink="http://www.w3.org/1999/xlink" x="0px" y="0px"
	 width="100%" viewBox="0 0 1088 594" enable-background="new 0 0 1088 594" xml:space="preserve">
<path fill="#FFFFFF" opacity="1.000000" stroke="none" 
	d="
M0.999999,295.000000 
	C1.000000,197.021912 1.000000,99.043831 1.000000,1.032875 
	C363.563629,1.032875 726.127258,1.032875 1089.000000,1.032875 
	C1089.000000,181.356537 1089.000000,361.713226 1088.658203,542.440308 
	C1086.395508,540.521790 1084.850342,537.698059 1082.487427,536.038574 
	C1073.311523,529.594299 1062.818115,531.430603 1054.863037,536.763428 
	C1048.590698,540.968201 1047.003418,547.590698 1048.115967,554.611633 
	C1049.106934,560.864746 1053.889282,563.982483 1059.509888,566.026062 
	C1062.823364,567.230652 1066.098877,568.572327 1069.294434,570.060730 
	C1075.303467,572.859619 1075.924927,579.927734 1070.608521,584.054565 
	C1062.226440,590.561157 1053.255371,587.187744 1049.373901,575.960571 
	C1046.234863,577.092285 1043.100830,578.222290 1040.140503,579.289551 
	C1041.165039,586.576355 1046.007812,590.841309 1051.000000,595.000000 
	C1040.643311,595.000000 1030.286621,595.000000 1019.550781,594.655640 
	C1024.890991,590.525574 1031.433838,587.519348 1033.155762,579.459167 
	C1030.521606,578.327393 1027.952148,577.223450 1025.304688,576.085876 
	C1024.306274,577.500183 1023.487183,578.690674 1022.637451,579.858948 
	C1017.749634,586.579224 1010.495117,588.428589 1004.980103,586.104736 
	C1000.110229,584.052917 997.515503,578.992249 997.970703,571.445251 
	C998.160461,568.299438 999.265320,566.859253 1002.739380,566.927429 
	C1013.055725,567.130005 1023.380249,567.086487 1033.697144,566.900452 
	C1035.135254,566.874512 1037.733154,565.581421 1037.785034,564.749695 
	C1038.166504,558.634705 1038.602905,552.416931 1037.847046,546.378601 
	C1037.421631,542.979065 1035.575562,538.810425 1032.971191,536.794495 
	C1021.748047,528.107117 1006.358032,532.052673 998.128174,541.652283 
	C992.457336,548.266846 989.210266,556.404785 988.277710,564.878601 
	C987.284790,573.901367 986.595276,583.501831 994.888489,590.328369 
	C997.065674,592.120483 999.619263,593.455261 1002.000000,595.000000 
	C991.976685,595.000000 981.953369,595.000000 971.608948,594.616943 
	C979.747742,593.612671 980.979736,592.077454 979.372192,583.991455 
	C977.555237,584.654297 975.794373,585.517273 973.933655,585.930786 
	C969.672791,586.877380 966.300293,584.071899 967.039551,580.232849 
	C969.167480,569.181213 971.385559,558.146973 973.560486,547.145081 
	C989.280579,546.518066 989.280579,546.518066 988.487732,537.905640 
	C984.150940,537.905640 979.768372,537.905640 975.442261,537.905640 
	C976.508545,531.772034 977.514587,525.985046 978.528015,520.155396 
	C970.229919,520.585938 967.160339,523.311523 965.976929,530.967041 
	C965.614441,533.311707 965.003723,535.617981 964.521301,537.873474 
	C955.666504,538.178345 955.666504,538.178345 954.015198,546.938416 
	C957.003296,546.938416 959.926208,546.938416 962.961426,546.938416 
	C961.246216,555.642883 959.613098,563.872620 958.007263,572.107666 
	C957.328796,575.586731 956.323181,579.057922 956.149841,582.566467 
	C955.884216,587.944641 958.745483,591.937195 963.000000,595.000000 
	C943.309998,595.000000 923.620056,595.000000 903.565002,594.653076 
	C908.760132,592.222839 912.848694,588.449707 916.091675,583.527039 
	C923.155701,572.804504 925.087219,560.780701 923.804932,548.468018 
	C922.660217,537.477112 914.280518,529.280212 901.416931,533.049805 
	C898.045410,534.037781 894.867737,535.687195 891.432678,537.102173 
	C892.755066,529.500732 893.980713,522.455139 895.277588,515.000610 
	C892.230469,515.000610 889.841003,514.638489 887.645020,515.133911 
	C886.287476,515.440186 884.517822,516.852234 884.162231,518.114197 
	C883.113159,521.837219 882.726685,525.742493 881.990906,529.559021 
	C879.112854,544.486023 876.171021,559.400757 873.313843,574.331726 
	C872.084717,580.754822 871.004578,587.206421 869.793762,593.998413 
	C873.006775,593.998413 875.731873,594.631042 877.896057,593.801147 
	C879.673889,593.119385 880.785461,590.700195 882.524353,588.661926 
	C883.715942,590.349426 885.357971,592.674683 887.000000,595.000000 
	C591.777893,595.000000 296.555725,595.000000 1.000000,595.000000 
	C1.000000,509.643616 1.000000,424.286835 1.382630,338.585754 
	C3.173678,344.661560 4.688990,351.060455 5.970443,357.505798 
	C9.781266,376.673248 17.141815,394.403198 27.451355,410.943054 
	C37.017563,426.290375 47.899998,440.607300 62.341534,451.698242 
	C71.689865,458.877655 81.267891,465.896759 91.382759,471.911865 
	C116.155083,486.643463 143.491699,493.967133 171.988693,495.701660 
	C187.890915,496.669586 204.143677,495.833679 219.925415,493.599426 
	C233.010788,491.746857 245.892563,487.362640 258.410919,482.843414 
	C279.501587,475.229492 298.258972,463.400665 314.505768,447.884644 
	C321.444214,441.258240 328.150299,434.318176 334.322845,426.982819 
	C339.088165,421.319794 342.945282,414.876282 347.029297,408.663483 
	C348.913574,405.796997 348.749817,403.444092 344.902527,401.898224 
	C341.485229,400.525177 338.338104,398.453705 335.130157,396.589935 
	C317.010803,386.062714 298.931244,375.466644 280.777008,365.000092 
	C278.092499,363.452362 275.793396,363.018036 273.549896,366.732178 
	C264.362976,381.941406 252.290039,394.524384 236.437897,402.783844 
	C215.359299,413.766479 193.048279,417.369141 169.402542,413.091248 
	C144.174347,408.527069 123.830551,396.030884 108.538712,375.856110 
	C90.648895,352.253784 85.228302,324.999390 90.288628,296.293793 
	C94.168114,274.286682 104.867386,255.504761 122.505508,240.774490 
	C140.088242,226.090454 160.496643,219.449951 182.707245,218.260056 
	C192.704239,217.724487 203.037064,219.111588 212.895599,221.168900 
	C240.218750,226.870819 261.033356,242.066681 274.746338,266.522949 
	C276.937958,270.431549 279.582397,269.384186 282.084625,267.930664 
	C303.695465,255.377090 325.191162,242.625198 346.813080,230.091003 
	C349.846008,228.332825 349.696716,225.991043 348.323822,223.982193 
	C343.208893,216.497894 338.335724,208.722931 332.309967,202.010239 
	C314.570923,182.248901 293.845551,166.498291 269.209351,155.913452 
	C247.985992,146.794937 225.818146,141.647079 203.014969,140.232864 
	C179.741852,138.789490 156.613770,140.575134 133.786087,146.791962 
	C105.614807,154.464035 80.547821,167.580215 58.869392,186.828125 
	C39.130711,204.353790 23.474371,225.213333 14.151471,250.117645 
	C9.887182,261.508850 7.344249,273.543121 3.986499,285.275970 
	C3.053739,288.535248 1.998853,291.759613 0.999999,295.000000 
M754.500000,140.000000 
	C718.411560,140.000000 682.323059,140.000000 646.000000,140.000000 
	C646.000000,141.889557 646.000000,143.199768 646.000000,144.509979 
	C646.000000,255.817459 646.023376,367.124969 645.912415,478.432343 
	C645.908081,482.777008 647.035156,484.110504 651.493286,484.095947 
	C698.815125,483.941315 746.139465,484.228912 793.458984,483.862274 
	C807.883728,483.750519 822.371765,482.612427 836.693665,480.837524 
	C853.066956,478.808441 868.762512,473.603607 883.669006,466.607330 
	C904.285583,456.931091 922.698425,444.143127 937.870178,426.805206 
	C946.486877,416.958344 953.891602,406.465179 960.053406,394.948669 
	C974.172363,368.560028 980.145325,340.299957 979.957458,310.584351 
	C979.922058,304.996307 979.294922,299.413818 979.009766,293.825256 
	C978.127625,276.537598 974.242676,259.945496 968.054504,243.789948 
	C954.670044,208.847137 931.677979,182.112686 899.216003,163.784149 
	C870.218567,147.411774 838.650635,140.309357 805.488159,140.024918 
	C788.826660,139.881989 772.162781,140.000000 754.500000,140.000000 
M390.500000,100.000000 
	C462.921509,100.000000 535.343018,100.000000 607.699341,100.000000 
	C607.699341,74.349693 607.699341,49.281990 607.699341,24.290779 
	C415.344543,24.290779 223.290543,24.290779 31.300694,24.290779 
	C31.300694,49.650414 31.300694,74.718124 31.300694,100.000000 
	C150.900833,100.000000 270.200409,100.000000 390.500000,100.000000 
M429.642273,288.039734 
	C417.659943,293.573456 406.574890,300.595947 396.998627,309.631134 
	C384.004181,321.891418 375.131042,336.847656 370.419891,354.131531 
	C365.858582,370.865631 365.469940,387.870422 369.425629,404.648529 
	C374.553284,426.397430 385.301025,445.159698 403.441681,458.679108 
	C412.165039,465.180267 421.723450,470.792511 431.512878,475.555237 
	C438.776764,479.089233 446.923798,481.018799 454.856873,482.910675 
	C463.812561,485.046387 472.919708,487.290894 482.050446,487.764587 
	C494.081726,488.388763 506.266113,487.997437 518.261169,486.802551 
	C528.818359,485.750885 539.423767,483.739807 549.601807,480.763428 
	C558.459290,478.173248 567.103394,474.287781 575.217346,469.836456 
	C593.107239,460.022064 607.632324,446.455292 616.953003,428.023041 
	C627.580383,407.006470 630.367554,384.900726 626.112427,361.665314 
	C622.581665,342.385406 614.109802,325.694733 600.364563,312.097015 
	C584.323364,296.228088 564.975769,286.251404 542.828369,280.672516 
	C521.168945,275.216644 499.595581,273.790192 477.561493,275.984222 
	C461.239838,277.609406 445.455353,281.271698 429.642273,288.039734 
M671.500000,24.000000 
	C662.736389,24.000000 653.972839,24.000000 645.307190,24.000000 
	C645.307190,49.664585 645.307190,74.731850 645.307190,99.701935 
	C792.002441,99.701935 938.390320,99.701935 1084.692871,99.701935 
	C1084.692871,74.335411 1084.692871,49.268127 1084.692871,24.000000 
	C947.090454,24.000000 809.795227,24.000000 671.500000,24.000000 
M1000.000000,443.500000 
	C1000.000000,455.329773 1000.154785,467.162720 999.913940,478.987610 
	C999.832336,482.994568 1001.105225,484.105957 1005.050110,484.081207 
	C1030.375000,483.922211 1055.702026,483.915985 1081.026611,484.085693 
	C1085.076172,484.112823 1086.077271,482.802094 1086.074097,478.912445 
	C1085.982178,367.611908 1085.980591,256.311279 1086.078979,145.010773 
	C1086.082520,141.014481 1084.895020,139.893204 1080.949951,139.918732 
	C1056.124878,140.079269 1031.298340,139.999527 1006.472351,140.000305 
	C1000.001892,140.000504 1000.000244,140.002289 1000.000244,146.587021 
	C999.999878,245.224686 1000.000000,343.862335 1000.000000,443.500000 
M412.218140,263.958588 
	C423.803894,261.150238 435.390320,258.344818 446.975189,255.532806 
	C462.782166,251.695984 478.567322,247.766769 494.398895,244.034393 
	C519.650269,238.081238 544.936340,232.275482 570.199402,226.371613 
	C582.717224,223.446259 595.216370,220.441101 607.778198,217.459183 
	C607.778198,192.066772 607.778198,166.642319 607.778198,140.489716 
	C533.955505,157.901077 460.504608,175.224731 387.175446,192.519684 
	C387.175446,218.063568 387.175446,243.345047 387.175446,269.393646 
	C395.448639,267.547119 403.402985,265.771759 412.218140,263.958588 
M927.996033,590.348511 
	C927.672852,591.412476 927.349609,592.476501 926.949890,593.792542 
	C930.607239,593.792542 934.043884,593.792542 937.843079,593.792542 
	C941.693604,573.675537 945.547607,553.540344 949.479187,533.000000 
	C947.108398,533.000000 945.777222,533.145813 944.488525,532.973572 
	C940.086182,532.385193 938.567261,533.867554 937.779114,538.642761 
	C934.970520,555.659607 931.327332,572.538818 927.996033,590.348511 
M940.105469,524.523682 
	C943.982178,524.729126 947.858887,524.934631 951.724548,525.139465 
	C952.230774,521.451782 952.652039,518.383362 953.116272,515.001892 
	C949.640625,515.001892 946.825806,514.775391 944.080261,515.113098 
	C942.979858,515.248474 941.522339,516.431824 941.125671,517.478699 
	C940.400818,519.391418 940.344727,521.557678 940.105469,524.523682 
z"/>
<path fill="#1E1C19" opacity="1.000000" stroke="none" 
	d="
M0.999999,295.333313 
	C1.998853,291.759613 3.053739,288.535248 3.986499,285.275970 
	C7.344249,273.543121 9.887182,261.508850 14.151471,250.117645 
	C23.474371,225.213333 39.130711,204.353790 58.869392,186.828125 
	C80.547821,167.580215 105.614807,154.464035 133.786087,146.791962 
	C156.613770,140.575134 179.741852,138.789490 203.014969,140.232864 
	C225.818146,141.647079 247.985992,146.794937 269.209351,155.913452 
	C293.845551,166.498291 314.570923,182.248901 332.309967,202.010239 
	C338.335724,208.722931 343.208893,216.497894 348.323822,223.982193 
	C349.696716,225.991043 349.846008,228.332825 346.813080,230.091003 
	C325.191162,242.625198 303.695465,255.377090 282.084625,267.930664 
	C279.582397,269.384186 276.937958,270.431549 274.746338,266.522949 
	C261.033356,242.066681 240.218750,226.870819 212.895599,221.168900 
	C203.037064,219.111588 192.704239,217.724487 182.707245,218.260056 
	C160.496643,219.449951 140.088242,226.090454 122.505508,240.774490 
	C104.867386,255.504761 94.168114,274.286682 90.288628,296.293793 
	C85.228302,324.999390 90.648895,352.253784 108.538712,375.856110 
	C123.830551,396.030884 144.174347,408.527069 169.402542,413.091248 
	C193.048279,417.369141 215.359299,413.766479 236.437897,402.783844 
	C252.290039,394.524384 264.362976,381.941406 273.549896,366.732178 
	C275.793396,363.018036 278.092499,363.452362 280.777008,365.000092 
	C298.931244,375.466644 317.010803,386.062714 335.130157,396.589935 
	C338.338104,398.453705 341.485229,400.525177 344.902527,401.898224 
	C348.749817,403.444092 348.913574,405.796997 347.029297,408.663483 
	C342.945282,414.876282 339.088165,421.319794 334.322845,426.982819 
	C328.150299,434.318176 321.444214,441.258240 314.505768,447.884644 
	C298.258972,463.400665 279.501587,475.229492 258.410919,482.843414 
	C245.892563,487.362640 233.010788,491.746857 219.925415,493.599426 
	C204.143677,495.833679 187.890915,496.669586 171.988693,495.701660 
	C143.491699,493.967133 116.155083,486.643463 91.382759,471.911865 
	C81.267891,465.896759 71.689865,458.877655 62.341534,451.698242 
	C47.899998,440.607300 37.017563,426.290375 27.451355,410.943054 
	C17.141815,394.403198 9.781266,376.673248 5.970443,357.505798 
	C4.688990,351.060455 3.173678,344.661560 1.382630,338.120728 
	C1.000000,337.555542 1.000000,337.111115 1.379693,336.194672 
	C1.506256,333.481781 1.253127,331.240906 0.999999,329.000000 
	C1.000000,320.645782 1.000000,312.291534 1.373536,303.336884 
	C1.498049,300.824310 1.249025,298.912140 1.000001,297.000000 
	C1.000000,296.555542 1.000000,296.111115 0.999999,295.333313 
z"/>
<path fill="#1E1C19" opacity="1.000000" stroke="none" 
	d="
M887.466858,595.000000 
	C885.357971,592.674683 883.715942,590.349426 882.524353,588.661926 
	C880.785461,590.700195 879.673889,593.119385 877.896057,593.801147 
	C875.731873,594.631042 873.006775,593.998413 869.793762,593.998413 
	C871.004578,587.206421 872.084717,580.754822 873.313843,574.331726 
	C876.171021,559.400757 879.112854,544.486023 881.990906,529.559021 
	C882.726685,525.742493 883.113159,521.837219 884.162231,518.114197 
	C884.517822,516.852234 886.287476,515.440186 887.645020,515.133911 
	C889.841003,514.638489 892.230469,515.000610 895.277588,515.000610 
	C893.980713,522.455139 892.755066,529.500732 891.432678,537.102173 
	C894.867737,535.687195 898.045410,534.037781 901.416931,533.049805 
	C914.280518,529.280212 922.660217,537.477112 923.804932,548.468018 
	C925.087219,560.780701 923.155701,572.804504 916.091675,583.527039 
	C912.848694,588.449707 908.760132,592.222839 903.099976,594.653076 
	C897.977905,595.000000 892.955811,595.000000 887.466858,595.000000 
M890.369324,548.092224 
	C888.914062,553.300842 887.312073,558.474182 886.046692,563.728516 
	C884.885132,568.552124 883.092041,573.520691 883.369995,578.321594 
	C883.749329,584.873413 896.047058,588.675415 901.268555,584.092590 
	C911.811096,574.839478 914.051025,562.540833 912.657104,549.414429 
	C912.104858,544.214111 906.434753,539.850098 902.640381,541.239502 
	C898.519714,542.748474 894.824341,545.418945 890.369324,548.092224 
z"/>
<path fill="#1E1C19" opacity="1.000000" stroke="none" 
	d="
M1002.467590,595.000000 
	C999.619263,593.455261 997.065674,592.120483 994.888489,590.328369 
	C986.595276,583.501831 987.284790,573.901367 988.277710,564.878601 
	C989.210266,556.404785 992.457336,548.266846 998.128174,541.652283 
	C1006.358032,532.052673 1021.748047,528.107117 1032.971191,536.794495 
	C1035.575562,538.810425 1037.421631,542.979065 1037.847046,546.378601 
	C1038.602905,552.416931 1038.166504,558.634705 1037.785034,564.749695 
	C1037.733154,565.581421 1035.135254,566.874512 1033.697144,566.900452 
	C1023.380249,567.086487 1013.055725,567.130005 1002.739380,566.927429 
	C999.265320,566.859253 998.160461,568.299438 997.970703,571.445251 
	C997.515503,578.992249 1000.110229,584.052917 1004.980103,586.104736 
	C1010.495117,588.428589 1017.749634,586.579224 1022.637451,579.858948 
	C1023.487183,578.690674 1024.306274,577.500183 1025.304688,576.085876 
	C1027.952148,577.223450 1030.521606,578.327393 1033.155762,579.459167 
	C1031.433838,587.519348 1024.890991,590.525574 1019.085815,594.655640 
	C1013.645081,595.000000 1008.290100,595.000000 1002.467590,595.000000 
M1012.569458,541.908020 
	C1004.584961,544.742126 1003.228882,552.288818 1000.198181,559.000000 
	C1008.453247,559.000000 1016.399475,558.847534 1024.335205,559.070007 
	C1027.835938,559.168030 1028.852295,557.644043 1029.032593,554.513062 
	C1029.589844,544.832886 1023.446899,539.692322 1012.569458,541.908020 
z"/>
<path fill="#1E1C19" opacity="1.000000" stroke="none" 
	d="
M1051.468018,595.000000 
	C1046.007812,590.841309 1041.165039,586.576355 1040.140503,579.289551 
	C1043.100830,578.222290 1046.234863,577.092285 1049.373901,575.960571 
	C1053.255371,587.187744 1062.226440,590.561157 1070.608521,584.054565 
	C1075.924927,579.927734 1075.303467,572.859619 1069.294434,570.060730 
	C1066.098877,568.572327 1062.823364,567.230652 1059.509888,566.026062 
	C1053.889282,563.982483 1049.106934,560.864746 1048.115967,554.611633 
	C1047.003418,547.590698 1048.590698,540.968201 1054.863037,536.763428 
	C1062.818115,531.430603 1073.311523,529.594299 1082.487427,536.038574 
	C1084.850342,537.698059 1086.395508,540.521790 1088.658203,542.905334 
	C1089.000000,544.066711 1089.000000,545.133362 1088.601196,546.604675 
	C1085.337158,547.835266 1082.471924,548.661194 1079.519653,549.512268 
	C1078.147217,541.060181 1069.946777,538.472168 1063.838135,541.911438 
	C1061.349976,543.312317 1059.022705,546.365173 1058.272705,549.116333 
	C1057.464600,552.080688 1059.662964,554.932434 1062.783447,556.242676 
	C1066.022705,557.602783 1069.303833,558.891174 1072.640747,559.985229 
	C1086.202148,564.431641 1087.704834,575.650696 1081.603882,586.118225 
	C1078.601074,591.270386 1073.314453,592.229126 1069.000000,595.000000 
	C1063.312012,595.000000 1057.623901,595.000000 1051.468018,595.000000 
z"/>
<path fill="#1E1C19" opacity="1.000000" stroke="none" 
	d="
M963.444153,595.000000 
	C958.745483,591.937195 955.884216,587.944641 956.149841,582.566467 
	C956.323181,579.057922 957.328796,575.586731 958.007263,572.107666 
	C959.613098,563.872620 961.246216,555.642883 962.961426,546.938416 
	C959.926208,546.938416 957.003296,546.938416 954.015198,546.938416 
	C955.666504,538.178345 955.666504,538.178345 964.521301,537.873474 
	C965.003723,535.617981 965.614441,533.311707 965.976929,530.967041 
	C967.160339,523.311523 970.229919,520.585938 978.528015,520.155396 
	C977.514587,525.985046 976.508545,531.772034 975.442261,537.905640 
	C979.768372,537.905640 984.150940,537.905640 988.487732,537.905640 
	C989.280579,546.518066 989.280579,546.518066 973.560486,547.145081 
	C971.385559,558.146973 969.167480,569.181213 967.039551,580.232849 
	C966.300293,584.071899 969.672791,586.877380 973.933655,585.930786 
	C975.794373,585.517273 977.555237,584.654297 979.372192,583.991455 
	C980.979736,592.077454 979.747742,593.612671 971.143921,594.616943 
	C968.629456,595.000000 966.258850,595.000000 963.444153,595.000000 
z"/>
<path fill="#FFFFFF" opacity="1.000000" stroke="none" 
	d="
M1069.468994,595.000000 
	C1073.314453,592.229126 1078.601074,591.270386 1081.603882,586.118225 
	C1087.704834,575.650696 1086.202148,564.431641 1072.640747,559.985229 
	C1069.303833,558.891174 1066.022705,557.602783 1062.783447,556.242676 
	C1059.662964,554.932434 1057.464600,552.080688 1058.272705,549.116333 
	C1059.022705,546.365173 1061.349976,543.312317 1063.838135,541.911438 
	C1069.946777,538.472168 1078.147217,541.060181 1079.519653,549.512268 
	C1082.471924,548.661194 1085.337158,547.835266 1088.601196,547.004639 
	C1089.000000,562.896179 1089.000000,578.792297 1089.000000,595.000000 
	C1082.649414,595.000000 1076.293823,595.000000 1069.468994,595.000000 
z"/>
<path fill="#FFFFFF" opacity="1.000000" stroke="none" 
	d="
M0.999999,329.437439 
	C1.253127,331.240906 1.506256,333.481781 1.379693,335.861328 
	C1.000000,333.958282 1.000000,331.916595 0.999999,329.437439 
z"/>
<path fill="#FFFFFF" opacity="1.000000" stroke="none" 
	d="
M1.000001,297.428467 
	C1.249025,298.912140 1.498049,300.824310 1.373536,302.868225 
	C1.000000,301.285645 1.000000,299.571289 1.000001,297.428467 
z"/>
<path fill="#1E1C19" opacity="1.000000" stroke="none" 
	d="
M755.000000,140.000000 
	C772.162781,140.000000 788.826660,139.881989 805.488159,140.024918 
	C838.650635,140.309357 870.218567,147.411774 899.216003,163.784149 
	C931.677979,182.112686 954.670044,208.847137 968.054504,243.789948 
	C974.242676,259.945496 978.127625,276.537598 979.009766,293.825256 
	C979.294922,299.413818 979.922058,304.996307 979.957458,310.584351 
	C980.145325,340.299957 974.172363,368.560028 960.053406,394.948669 
	C953.891602,406.465179 946.486877,416.958344 937.870178,426.805206 
	C922.698425,444.143127 904.285583,456.931091 883.669006,466.607330 
	C868.762512,473.603607 853.066956,478.808441 836.693665,480.837524 
	C822.371765,482.612427 807.883728,483.750519 793.458984,483.862274 
	C746.139465,484.228912 698.815125,483.941315 651.493286,484.095947 
	C647.035156,484.110504 645.908081,482.777008 645.912415,478.432343 
	C646.023376,367.124969 646.000000,255.817459 646.000000,144.509979 
	C646.000000,143.199768 646.000000,141.889557 646.000000,140.000000 
	C682.323059,140.000000 718.411560,140.000000 755.000000,140.000000 
M859.585876,237.956528 
	C855.782654,235.519989 852.170837,232.693375 848.142151,230.716370 
	C833.034119,223.302612 816.811096,220.379028 800.141052,220.064270 
	C784.321655,219.765594 768.492065,220.000000 752.666992,220.000000 
	C745.889771,220.000000 739.112488,220.000000 732.215698,220.000000 
	C732.215698,281.519989 732.215698,342.566589 732.215698,404.000000 
	C751.542480,404.000000 770.664490,404.340637 789.766418,403.868347 
	C800.693665,403.598206 811.688904,402.625519 822.475769,400.874146 
	C842.477783,397.626526 859.328735,387.837372 872.024475,372.227509 
	C892.030273,347.629547 896.219360,318.811279 890.602173,288.524719 
	C886.841492,268.248413 877.357483,250.694519 859.585876,237.956528 
z"/>
<path fill="#1E1C19" opacity="1.000000" stroke="none" 
	d="
M390.000000,100.000000 
	C270.200409,100.000000 150.900833,100.000000 31.300694,100.000000 
	C31.300694,74.718124 31.300694,49.650414 31.300694,24.290779 
	C223.290543,24.290779 415.344543,24.290779 607.699341,24.290779 
	C607.699341,49.281990 607.699341,74.349693 607.699341,100.000000 
	C535.343018,100.000000 462.921509,100.000000 390.000000,100.000000 
z"/>
<path fill="#1E1C19" opacity="1.000000" stroke="none" 
	d="
M430.034546,287.995605 
	C445.455353,281.271698 461.239838,277.609406 477.561493,275.984222 
	C499.595581,273.790192 521.168945,275.216644 542.828369,280.672516 
	C564.975769,286.251404 584.323364,296.228088 600.364563,312.097015 
	C614.109802,325.694733 622.581665,342.385406 626.112427,361.665314 
	C630.367554,384.900726 627.580383,407.006470 616.953003,428.023041 
	C607.632324,446.455292 593.107239,460.022064 575.217346,469.836456 
	C567.103394,474.287781 558.459290,478.173248 549.601807,480.763428 
	C539.423767,483.739807 528.818359,485.750885 518.261169,486.802551 
	C506.266113,487.997437 494.081726,488.388763 482.050446,487.764587 
	C472.919708,487.290894 463.812561,485.046387 454.856873,482.910675 
	C446.923798,481.018799 438.776764,479.089233 431.512878,475.555237 
	C421.723450,470.792511 412.165039,465.180267 403.441681,458.679108 
	C385.301025,445.159698 374.553284,426.397430 369.425629,404.648529 
	C365.469940,387.870422 365.858582,370.865631 370.419891,354.131531 
	C375.131042,336.847656 384.004181,321.891418 396.998627,309.631134 
	C406.574890,300.595947 417.659943,293.573456 430.034546,287.995605 
M482.088867,350.394531 
	C471.856720,352.631622 463.143066,356.794159 458.874176,367.358551 
	C455.904083,374.708679 455.900970,382.399139 457.242615,389.727478 
	C459.042267,399.557495 464.700684,406.915710 474.797333,410.452759 
	C487.397339,414.866760 500.289825,415.106476 513.035522,412.748413 
	C522.899109,410.923645 531.928467,406.461243 535.984009,396.035706 
	C538.920776,388.486053 538.848755,380.699219 537.410217,372.846802 
	C536.295898,366.764069 533.593628,361.490936 528.920715,357.467560 
	C521.537964,351.111053 512.261719,349.809540 503.110229,349.160248 
	C496.423828,348.685852 489.632629,349.688751 482.088867,350.394531 
z"/>
<path fill="#1E1C19" opacity="1.000000" stroke="none" 
	d="
M672.000000,24.000000 
	C809.795227,24.000000 947.090454,24.000000 1084.692871,24.000000 
	C1084.692871,49.268127 1084.692871,74.335411 1084.692871,99.701935 
	C938.390320,99.701935 792.002441,99.701935 645.307190,99.701935 
	C645.307190,74.731850 645.307190,49.664585 645.307190,24.000000 
	C653.972839,24.000000 662.736389,24.000000 672.000000,24.000000 
z"/>
<path fill="#1E1C19" opacity="1.000000" stroke="none" 
	d="
M1000.000000,443.000000 
	C1000.000000,343.862335 999.999878,245.224686 1000.000244,146.587021 
	C1000.000244,140.002289 1000.001892,140.000504 1006.472351,140.000305 
	C1031.298340,139.999527 1056.124878,140.079269 1080.949951,139.918732 
	C1084.895020,139.893204 1086.082520,141.014481 1086.078979,145.010773 
	C1085.980591,256.311279 1085.982178,367.611908 1086.074097,478.912445 
	C1086.077271,482.802094 1085.076172,484.112823 1081.026611,484.085693 
	C1055.702026,483.915985 1030.375000,483.922211 1005.050110,484.081207 
	C1001.105225,484.105957 999.832336,482.994568 999.913940,478.987610 
	C1000.154785,467.162720 1000.000000,455.329773 1000.000000,443.000000 
z"/>
<path fill="#1E1C19" opacity="1.000000" stroke="none" 
	d="
M411.787720,263.977478 
	C403.402985,265.771759 395.448639,267.547119 387.175446,269.393646 
	C387.175446,243.345047 387.175446,218.063568 387.175446,192.519684 
	C460.504608,175.224731 533.955505,157.901077 607.778198,140.489716 
	C607.778198,166.642319 607.778198,192.066772 607.778198,217.459183 
	C595.216370,220.441101 582.717224,223.446259 570.199402,226.371613 
	C544.936340,232.275482 519.650269,238.081238 494.398895,244.034393 
	C478.567322,247.766769 462.782166,251.695984 446.975189,255.532806 
	C435.390320,258.344818 423.803894,261.150238 411.787720,263.977478 
z"/>
<path fill="#1E1C19" opacity="1.000000" stroke="none" 
	d="
M927.998047,589.909302 
	C931.327332,572.538818 934.970520,555.659607 937.779114,538.642761 
	C938.567261,533.867554 940.086182,532.385193 944.488525,532.973572 
	C945.777222,533.145813 947.108398,533.000000 949.479187,533.000000 
	C945.547607,553.540344 941.693604,573.675537 937.843079,593.792542 
	C934.043884,593.792542 930.607239,593.792542 926.949890,593.792542 
	C927.349609,592.476501 927.672852,591.412476 927.998047,589.909302 
z"/>
<path fill="#1E1C19" opacity="1.000000" stroke="none" 
	d="
M940.057617,524.070923 
	C940.344727,521.557678 940.400818,519.391418 941.125671,517.478699 
	C941.522339,516.431824 942.979858,515.248474 944.080261,515.113098 
	C946.825806,514.775391 949.640625,515.001892 953.116272,515.001892 
	C952.652039,518.383362 952.230774,521.451782 951.724548,525.139465 
	C947.858887,524.934631 943.982178,524.729126 940.057617,524.070923 
z"/>
<path fill="#FFFFFF" opacity="1.000000" stroke="none" 
	d="
M890.656433,547.837585 
	C894.824341,545.418945 898.519714,542.748474 902.640381,541.239502 
	C906.434753,539.850098 912.104858,544.214111 912.657104,549.414429 
	C914.051025,562.540833 911.811096,574.839478 901.268555,584.092590 
	C896.047058,588.675415 883.749329,584.873413 883.369995,578.321594 
	C883.092041,573.520691 884.885132,568.552124 886.046692,563.728516 
	C887.312073,558.474182 888.914062,553.300842 890.656433,547.837585 
z"/>
<path fill="#FFFFFF" opacity="1.000000" stroke="none" 
	d="
M1012.850159,541.627563 
	C1023.446899,539.692322 1029.589844,544.832886 1029.032593,554.513062 
	C1028.852295,557.644043 1027.835938,559.168030 1024.335205,559.070007 
	C1016.399475,558.847534 1008.453247,559.000000 1000.198181,559.000000 
	C1003.228882,552.288818 1004.584961,544.742126 1012.850159,541.627563 
z"/>
<path fill="#FFFFFF" opacity="1.000000" stroke="none" 
	d="
M859.950562,237.994949 
	C877.357483,250.694519 886.841492,268.248413 890.602173,288.524719 
	C896.219360,318.811279 892.030273,347.629547 872.024475,372.227509 
	C859.328735,387.837372 842.477783,397.626526 822.475769,400.874146 
	C811.688904,402.625519 800.693665,403.598206 789.766418,403.868347 
	C770.664490,404.340637 751.542480,404.000000 732.215698,404.000000 
	C732.215698,342.566589 732.215698,281.519989 732.215698,220.000000 
	C739.112488,220.000000 745.889771,220.000000 752.666992,220.000000 
	C768.492065,220.000000 784.321655,219.765594 800.141052,220.064270 
	C816.811096,220.379028 833.034119,223.302612 848.142151,230.716370 
	C852.170837,232.693375 855.782654,235.519989 859.950562,237.994949 
z"/>
<path fill="#FFFFFF" opacity="1.000000" stroke="none" 
	d="
M482.488495,350.213806 
	C489.632629,349.688751 496.423828,348.685852 503.110229,349.160248 
	C512.261719,349.809540 521.537964,351.111053 528.920715,357.467560 
	C533.593628,361.490936 536.295898,366.764069 537.410217,372.846802 
	C538.848755,380.699219 538.920776,388.486053 535.984009,396.035706 
	C531.928467,406.461243 522.899109,410.923645 513.035522,412.748413 
	C500.289825,415.106476 487.397339,414.866760 474.797333,410.452759 
	C464.700684,406.915710 459.042267,399.557495 457.242615,389.727478 
	C455.900970,382.399139 455.904083,374.708679 458.874176,367.358551 
	C463.143066,356.794159 471.856720,352.631622 482.488495,350.213806 
z"/>
</svg>